<?xml version="1.0" encoding="utf-8"?>
<!-- Generator: Adobe Illustrator 26.0.1, SVG Export Plug-In . SVG Version: 6.00 Build 0)  -->
<svg version="1.0" id="Layer_1" xmlns="http://www.w3.org/2000/svg" xmlns:xlink="http://www.w3.org/1999/xlink" x="0px" y="0px"
	 viewBox="0 0 96 96" enable-background="new 0 0 96 96" xml:space="preserve">
<g>
	<path fill-rule="evenodd" clip-rule="evenodd" fill="#FFFFFF" d="M86.4,0H9.6C4.3,0,0,4.3,0,9.6v76.8C0,91.7,4.3,96,9.6,96h76.8
		c5.3,0,9.6-4.3,9.6-9.6V9.6C96,4.3,91.7,0,86.4,0z"/>
	<path fill-rule="evenodd" clip-rule="evenodd" fill="#8B0304" d="M86.4,0H9.6C4.3,0,0,4.3,0,9.6v76.8C0,91.7,4.3,96,9.6,96h76.8
		c5.3,0,9.6-4.3,9.6-9.6V9.6C96,4.3,91.7,0,86.4,0L86.4,0z"/>
	<path fill-rule="evenodd" clip-rule="evenodd" fill="#FFFFFF" d="M91.7,84.7c0,3.8-3.2,7-7,7H11.3c-3.8,0-7-3.1-7-7V11.3
		c0-3.8,3.2-7,7-7h73.5c3.8,0,7,3.1,7,7V84.7z"/>
	<path fill-rule="evenodd" clip-rule="evenodd" fill="#8B0304" d="M80.8,10.1l-9.7,6.5l-2.2,5.7L47,44.2l-5.7-5.6l-4.6,4.6
		c4.2,6.4-1.4,7.2-1.4,7.2c-6.8-0.7-8.5,2.9-8.5,2.9S16.5,63.4,10.7,69.5c-5.2,5.6,0.8,12.3,1.9,13.5l0,0c0,0,7.8,7.6,13.7,1.7
		c6-5.9,15.9-16.5,15.9-16.5s3.5-1.8,2.7-8.5c0,0,0.6-5.6,7.1-1.6l4.4-4.7l-6-5.8l21.8-21.9l0,0l5.7-2.3l6.1-10L80.8,10.1L80.8,10.1
		z M41.7,66.8c-2.2,2.5-5.2,5.6-8,8.5c-2.6,2.7-5.3,5.5-7.6,7.7c-1.5,1.4-3,2.1-4.6,2.2c0.9-0.4,1.7-1,2.5-1.8
		c1.3-1.3,2.7-2.7,4.2-4.3h0c1.3-1.4,2.9-3,4.5-4.6c1.4-1.5,2.8-3,4.1-4.3h0c1.8-1.9,3.6-3.8,5.1-5.5c0.8-0.9,1.3-1.7,1.7-2.6
		C43.7,63.7,43.1,65.3,41.7,66.8L41.7,66.8z M55.4,53.4L52,57.1l2.6-3.6l-4.1-4.8L55.4,53.4L55.4,53.4z M77.4,22.6l-5.8,2.2L64,32.6
		l7.2-8.3l5.9-2.2l6-8.5L77.4,22.6z"/>
	<path fill-rule="evenodd" clip-rule="evenodd" fill="#8B0304" d="M47,41.8l2.2-2.2l-3.1-3.1c0,0-3.6-3.1-2.9-9.5
		c0,0,2-13.2-15.2-17.2l6.3,14.3c0,0-4.3,7.6-12.6,5.1l-5.7-13.9c0,0-9.5,13.7,2.6,23.1c0,0,3,2.4,9.8,1.8c1.8-0.1,4.2,0.9,6.6,2.4
		l6.4-6.4L47,41.8L47,41.8z M31.3,39.2c0.9,0.2,1.9,1.1,1.9,1.1c-1.4-1-2.8-1-2.8-1v0c-0.3,0.1-0.6,0.1-0.9,0.2
		C36.2,38,41.4,33,42.7,26.8c-0.1,1.1-0.3,2.2-0.7,3.2c0,1.5,0.4,4.7,2.9,6.8c0,0-2.8-1.3-3.4-5.7C39.8,35.1,36,38.1,31.3,39.2
		L31.3,39.2z M76.8,56.4c0,0-2.5-0.6-7.4-0.6c-5,0-10.2-6.1-10.2-6.1L55,45.4l-2.1,2.2l5.9,5.8l-6.1,6.4c1.6,2.4,2.9,4.9,2.9,7.2
		c0.2,7.4-0.8,14.5,15.2,19.5l-6.3-13.8c0,0,3-8.2,12.4-5.5L83,81C83,81,94.2,63.4,76.8,56.4L76.8,56.4z M56.1,69.4
		c0,0.1,0,0.2,0,0.3c-0.1-0.6-0.1-1.2-0.1-1.8c0-0.8,0.1-1.7,0.3-2.5c0-0.9-0.3-2.6-1.9-4.7c0,0,1.8,2.1,2.2,3.6
		c1.4-4.3,5.1-7.4,9.6-8.1c-0.6-0.3-1.6-1.1-1.6-1.1c1,0.7,2,0.9,2.2,1c0.3,0,0.7-0.1,1-0.1c0.2,0,0.4,0,0.6,0
		C61.5,56.4,56.1,62.3,56.1,69.4L56.1,69.4z M48,47.6l6,5.9L51.6,56c-0.9-0.5-1.8-0.8-2.6-0.9c-1.9-2.2-3.6-3.7-3.6-3.7
		s-2.4-2.5-5.6-5.1c-0.1-0.9-0.5-1.8-1-2.8l2.4-2.4l5.7,5.6l4.6-4.6l1,1L48,47.6z"/>
</g>
</svg>
